<?xml version="1.0" standalone="no"?><!DOCTYPE svg PUBLIC "-//W3C//DTD SVG 1.1//EN" "http://www.w3.org/Graphics/SVG/1.1/DTD/svg11.dtd"><svg t="1506756781608" class="icon" style="" viewBox="0 0 1025 1024" version="1.1" xmlns="http://www.w3.org/2000/svg" p-id="4753" xmlns:xlink="http://www.w3.org/1999/xlink" width="200.1953125" height="200"><defs><style type="text/css"></style></defs><path d="M483.080192 1024c-95.573333 0-276.48-17.066667-395.946667-139.946667-92.16-98.986667-112.64-238.933333-54.613333-361.813333 64.853333-136.533333 208.213333-262.826667 358.4-314.026667 23.893333-10.24 47.786667-13.653333 75.093333-17.066666h20.48c13.653333 0 27.306667 3.413333 40.96 6.826666 13.653333 3.413333 27.306667 13.653333 40.96 23.893334 13.653333 10.24 20.48 23.893333 27.306667 40.96l10.24 30.72v6.826666c3.413333 10.24 3.413333 23.893333 3.413333 34.133334v3.413333c0 3.413333 0 10.24-3.413333 13.653333v3.413334l10.24-6.826667c13.653333-6.826667 30.72-10.24 47.786667-13.653333 13.653333-3.413333 37.546667-10.24 58.026666-13.653334 10.24 0 23.893333-3.413333 34.133334-3.413333 10.24 0 23.893333 0 34.133333 3.413333 27.306667 6.826667 47.786667 17.066667 64.853333 30.72 10.24 10.24 17.066667 20.48 23.893334 30.72 6.826667 10.24 6.826667 20.48 10.24 30.72 3.413333 10.24 3.413333 20.48 0 34.133334 0 10.24-3.413333 17.066667-3.413334 23.893333l-6.826666 23.893333s0 3.413333-3.413334 3.413334c10.24 3.413333 23.893333 6.826667 37.546667 10.24 13.653333 6.826667 30.72 17.066667 51.2 34.133333s34.133333 34.133333 44.373333 54.613333c13.653333 20.48 17.066667 44.373333 17.066667 81.92 0 27.306667-6.826667 58.026667-23.893333 98.986667-27.306667 58.026667-75.093333 105.813333-136.533334 146.773333-61.44 40.96-129.706667 68.266667-201.386666 81.92-51.2 10.24-116.053333 17.066667-180.906667 17.066667z m-6.826667-774.826667c-17.066667 3.413333-40.96 6.826667-61.44 13.653334-136.533333 44.373333-262.826667 157.013333-324.266666 283.306666-47.786667 98.986667-30.72 211.626667 40.96 290.133334 98.986667 105.813333 262.826667 122.88 351.573333 122.88 54.613333 0 112.64-6.826667 163.84-17.066667 68.266667-17.066667 129.706667-40.96 180.906667-71.68 54.613333-34.133333 92.16-75.093333 112.64-119.466667 13.653333-30.72 20.48-51.2 20.48-75.093333 0-23.893333-3.413333-37.546667-10.24-47.786667-6.826667-13.653333-17.066667-23.893333-30.72-34.133333-10.24-10.24-20.48-17.066667-34.133334-23.893333-6.826667-3.413333-17.066667-6.826667-20.48-6.826667l-6.826666-3.413333c-20.48-3.413333-37.546667-10.24-44.373334-23.893334-10.24-13.653333-10.24-34.133333-3.413333-47.786666l3.413333-10.24s0-3.413333 3.413334-6.826667c0 0 0-3.413333 3.413333-3.413333 0-3.413333 0-3.413333 3.413333-6.826667 0-3.413333 0-3.413333 3.413334-6.826667v-6.826666-27.306667c0-3.413333-3.413333-10.24-3.413334-13.653333-3.413333-3.413333-6.826667-10.24-10.24-17.066667-6.826667-6.826667-20.48-13.653333-30.72-17.066667-6.826667 0-17.066667-3.413333-23.893333-3.413333-6.826667 0-17.066667 0-23.893333 3.413333-10.24 0-20.48 3.413333-30.72 6.826667-6.826667 0-13.653333 3.413333-20.48 3.413333-6.826667 3.413333-13.653333 3.413333-20.48 6.826667-6.826667 3.413333-13.653333 3.413333-17.066667 6.826667l-20.48 6.826666h-6.826667c-6.826667 3.413333-13.653333 3.413333-20.48 3.413334h-10.24c-6.826667 0-17.066667-3.413333-20.48-3.413334-6.826667-3.413333-10.24-6.826667-13.653333-10.24-6.826667-6.826667-13.653333-17.066667-13.653333-34.133333 0-3.413333 0-10.24 3.413333-13.653333v-6.826667-10.24c3.413333-6.826667 3.413333-10.24 3.413333-13.653333 0-6.826667 0-13.653333-3.413333-20.48 0-6.826667-3.413333-13.653333-6.826667-23.893334-3.413333-6.826667-6.826667-10.24-10.24-17.066666-3.413333-3.413333-10.24-6.826667-13.653333-10.24 0 0-3.413333 3.413333-6.826667 3.413333h-30.72z" fill="#ffffff" p-id="4754"></path><path d="M466.013525 938.666667c-177.493333 0-320.853333-105.813333-320.853333-232.106667 0-129.706667 143.36-232.106667 320.853333-232.106667s320.853333 105.813333 320.853334 232.106667c3.413333 129.706667-143.36 232.106667-320.853334 232.106667z m0-399.36c-143.36 0-259.413333 75.093333-259.413333 170.666666s116.053333 170.666667 259.413333 170.666667c143.36 0 259.413333-75.093333 259.413334-170.666667s-116.053333-170.666667-259.413334-170.666666z" fill="#ffffff" p-id="4755"></path><path d="M466.013525 798.72c-51.2 0-92.16-40.96-92.16-92.16s40.96-92.16 92.16-92.16 92.16 40.96 92.16 92.16-40.96 92.16-92.16 92.16z m0-119.466667c-17.066667 0-27.306667 10.24-27.306666 27.306667s10.24 27.306667 27.306666 27.306667 27.306667-10.24 27.306667-27.306667c0-13.653333-10.24-27.306667-27.306667-27.306667z m385.706667-399.36c-17.066667-27.306667-44.373333-44.373333-78.506667-51.2h-20.48c-27.306667 0-51.2 6.826667-71.68 23.893334h-10.24l-27.306666-40.96v-10.24c30.72-20.48 68.266667-34.133333 105.813333-34.133334 61.44 0 116.053333 30.72 153.6 78.506667l-3.413333 10.24-40.96 27.306667-6.826667-3.413334z m119.466667-105.813333c-51.2-71.68-129.706667-112.64-215.04-112.64-54.613333 0-105.813333 17.066667-153.6 47.786667h-10.24l-27.306667-40.96v-10.24c54.613333-37.546667 119.466667-58.026667 187.733333-58.026667 105.813333 0 208.213333 51.2 266.24 139.946667l-3.413333 10.24-40.96 27.306666-3.413333-3.413333z" fill="#ffffff" p-id="4756"></path></svg>