<?xml version="1.0" standalone="no"?><!DOCTYPE svg PUBLIC "-//W3C//DTD SVG 1.1//EN" "http://www.w3.org/Graphics/SVG/1.1/DTD/svg11.dtd"><svg t="1506756823142" class="icon" style="" viewBox="0 0 1024 1024" version="1.1" xmlns="http://www.w3.org/2000/svg" p-id="5419" xmlns:xlink="http://www.w3.org/1999/xlink" width="200" height="200"><defs><style type="text/css"></style></defs><path d="M820.587194 256.175497c-77.249385-51.794643-183.925986-62.893422-261.174348-29.597085-47.821145 18.498306-102.998839 66.593697-128.748293 129.48712-7.356548 18.498306-11.035334 40.695864-14.71412 62.893422-7.357572 29.597085-7.357572 55.494918-18.392906 77.692477-3.678786 14.798031-14.71412 25.897833-33.107025 36.996612 3.677762 3.699252 7.356548 3.699252 14.71412 3.699252 11.035334 0 25.749454 0 33.107025-3.699252 40.463574-14.799054 51.499931-40.695864 69.891813-70.292949 22.070668-36.996612 58.856479-62.894446 106.676601-59.19417 29.42824 0 44.142359 11.098779 55.177694 14.798031 36.784788 22.197558 51.499931 66.593697 55.177694 92.490507 3.678786 0 3.678786 14.799054 3.678786 18.498306 7.357572 48.095391 0 85.092004-11.035334 125.787868-47.821145 147.985426-202.318892 247.87546-364.173187 207.179596-66.213028-18.498306-125.069507-59.19417-172.890652-110.988814l-7.357572-7.399527c0 0 3.678786 7.399527 3.678786 11.098779 14.71412 18.498306 25.749454 33.29736 40.463574 51.794643 36.784788 36.996612 77.249385 70.292949 121.390721 88.791256 11.035334 3.700275 22.070668 7.399527 33.107025 11.098779 7.356548 0 14.71412 3.699252 22.070668 3.699252 7.357572 3.700275 14.71412 3.700275 22.070668 3.700275 22.070668 3.699252 40.463574 3.699252 62.535265 3.699252 36.784788 0 73.570599-11.098779 102.998839-22.197558 14.71412-3.699252 29.42824-11.098779 44.142359-18.498306 14.71412-7.399527 25.749454-14.798031 36.784788-22.197558 106.676601-77.692477 158.175509-210.878848 147.140175-336.666716-3.678786-22.197558-7.357572-48.095391-14.71412-70.292949 0 0 3.678786 0 3.678786 3.700275 7.356548 11.098779 14.71412 22.197558 22.070668 29.597085 3.678786 14.799054 11.035334 33.29736 14.71412 48.095391 11.035334 33.29736 11.035334 55.494918 11.035334 55.494918 0 55.494918-3.678786 107.289562-22.070668 151.684678-22.071691 59.19417-66.213028 111.288642-117.712959 148.285255-44.142359 33.29736-95.641267 54.613852-158.175509 66.893526l7.356548 0c40.463574 0 80.927147-4.000104 117.712959-18.798135 29.42824-11.098779 62.535265-26.047236 91.962481-48.245817 36.784788-25.897833 69.891813-62.969147 91.962481-103.665011 44.142359-77.692477 58.856479-173.920098 44.142359-270.110881-7.356548-36.996612-18.392906-70.312392-33.107025-99.909477-7.357572-18.498306-14.71412-37.005822-22.070668-48.104601l3.678786 3.695159c3.678786 3.700275 7.356548 7.396457 11.035334 11.096732 25.749454 25.897833 44.142359 51.79362 62.535265 88.790232 3.678786 11.098779 7.357572 25.89681 11.035334 36.995589 7.356548 18.498306 11.035334 40.695864 11.035334 55.493895 3.678786 29.597085 0 51.794643 0 73.992201-3.678786 22.197558-7.357572 48.095391-14.71412 73.993225-3.678786 7.399527-7.357572 22.197558-11.035334 33.296337 3.678786-7.399527 3.678786-11.098779 7.357572-14.798031 11.035334-14.799054 29.42824-55.494918 36.784788-85.092004 3.678786-14.798031 7.357572-29.597085 11.035334-44.395116 3.678786-14.799054 3.678786-25.897833 7.357572-36.996612C967.727369 448.556039 916.228461 326.468446 820.587194 256.175497z" p-id="5420" fill="#ffffff"></path><path d="M491.7457 557.325301c12.464893-3.957125 21.812795-7.91425 28.04473-15.8285 12.463869-15.827477 15.58086-31.655977 34.276664-47.483454 6.231935-7.91425 12.463869-11.871375 18.695804-15.8285-9.347902-3.957125-18.695804-7.91425-28.04473-7.91425-21.812795-3.957125-34.276664 7.91425-46.741557 27.698852-15.58086 23.741727-24.928762 43.527352-46.741557 47.484478 3.115967 3.957125 9.347902 7.91425 12.463869 7.91425C469.932905 557.325301 482.396775 557.325301 491.7457 557.325301z" p-id="5421" fill="#ffffff"></path><path d="M203.412806 764.088412c77.249385 55.224766 180.2472 66.270333 261.175371 33.134655 47.820122-18.408255 99.320053-66.270333 125.069507-128.85881 7.357572-22.090111 14.71412-40.498366 18.392906-62.588477 3.678786-33.134655 3.678786-58.906621 14.71412-80.996732 7.357572-11.044544 18.392906-25.771967 33.107025-33.134655-3.678786-3.681856-7.357572-3.681856-11.035334-3.681856-14.71412-3.681856-25.749454 0-36.784788 3.681856-36.784788 14.7264-47.820122 40.498366-66.213028 66.270333-25.749454 36.81651-58.856479 66.270333-106.677625 62.588477-33.107025 0-44.142359-11.045567-55.177694-14.7264-40.463574-25.771967-55.177694-69.952188-58.856479-92.041276 0 0-3.678786-14.7264-3.678786-22.090111-7.356548-44.180222 0-84.678588 11.035334-121.495098 47.820122-147.267065 202.317868-246.672052 364.173187-206.173686 69.891813 18.408255 125.069507 58.906621 176.569438 106.768699-11.035334-18.408255-25.749454-33.134655-40.463574-51.54291-33.107025-36.81651-73.570599-69.951165-121.391744-88.360444-11.035334-3.681856-18.392906-7.363711-33.107025-11.044544-7.357572-3.681856-14.71412-3.681856-22.070668-7.363711-7.357572 0-11.035334 0-22.070668-3.681856-22.070668-3.681856-40.463574-3.681856-58.856479-3.681856-40.463574 0-73.570599 11.045567-106.676601 22.090111-11.035334 7.363711-29.42824 14.7264-44.142359 22.090111-11.035334 7.363711-25.749454 14.7264-36.784788 22.090111-106.677625 77.3159-154.497747 209.855542-147.141198 335.032496 3.508917 21.072945 7.055696 42.183751 13.758352 66.452481 0.227174 0.074701 0.401136 0.188288 0.532119 0.338714 0.017396 0.019443 0.027629 0.050142 0.044002 0.071631 0.100284 0.135076 0.177032 0.309038 0.229221 0.517793 0.01535 0.059352 0.029676 0.130983 0.040932 0.196475 0.038886 0.214894 0.066515 0.471744 0.079818 0.76441 0.004093 0.082888 0.011256 0.166799 0.014326 0.25685 0.011256 0.388856 0.01535 0.74292 0.01535 1.272993-0.338714-1.187035-0.63138-2.558265-0.955768-3.581572l-0.001023 0c-0.25071 0-0.584308-0.038886-0.982374-0.064468-0.084934-0.005117-0.168846 0.030699-0.260943 0.026606-0.416486-0.016373-0.88209-0.001023-1.477654-0.001023-7.357572-11.045567-14.71412-22.079878-18.392906-33.124422-7.357572-14.7264-14.71412-29.448706-18.392906-44.175105-7.357572-33.134655-7.357572-55.222719-7.357572-55.222719-3.678786-55.224766 3.678786-106.767676 22.070668-150.947897 22.070668-58.906621 62.535265-110.449531 114.034173-147.266042 47.821145-36.81651 95.641267-55.224766 161.855318-66.269309 0-3.681856-11.035334 0-11.035334-3.681856-40.463574 3.681856-77.249385 7.363711-114.034173 22.090111-33.107025 7.363711-66.213028 25.771967-91.962481 44.180222-40.463574 29.453822-69.891813 66.270333-95.641267 106.768699-40.463574 77.3159-58.856479 173.039032-44.142359 265.080308 7.357572 40.498366 18.392906 69.952188 33.107025 103.086843 7.357572 14.7264 18.392906 36.81651 25.749454 47.862078 0 0-3.678786-3.681856-7.356548-3.681856-3.678786-3.681856-7.357572-7.363711-11.035334-11.044544-25.749454-25.771967-44.142359-51.54291-58.856479-88.360444-7.356548-14.7264-11.035334-25.771967-14.71412-40.498366-3.678786-14.7264-7.357572-36.81651-11.035334-51.54291 0-29.453822 0-51.54291 3.677762-73.633021 0-22.090111 7.357572-47.862078 14.71412-77.314877 0-7.363711 7.356548-22.090111 11.035334-29.453822-7.357572 7.363711-7.357572 7.363711-11.035334 14.7264-11.035334 14.7264-25.749454 55.224766-36.785811 80.996732-3.677762 18.408255-7.356548 29.452799-11.035334 47.861054 0 11.045567-3.678786 25.771967-3.678786 36.81651C56.272631 576.322981 107.771539 697.818079 203.412806 764.088412z" p-id="5422" fill="#ffffff"></path></svg>