<?xml version="1.0" standalone="no"?><!DOCTYPE svg PUBLIC "-//W3C//DTD SVG 1.1//EN" "http://www.w3.org/Graphics/SVG/1.1/DTD/svg11.dtd"><svg t="1506756766486" class="icon" style="" viewBox="0 0 1024 1024" version="1.1" xmlns="http://www.w3.org/2000/svg" p-id="3998" xmlns:xlink="http://www.w3.org/1999/xlink" width="200" height="200"><defs><style type="text/css"></style></defs><path d="M508.075008 365.548544c24.255488 0 40.46336-15.466496 40.46336-38.510592 0-23.298048-16.1792-38.371328-40.46336-38.371328-24.283136 0-48.65536 15.072256-48.65536 38.371328 0.029696 23.044096 24.40192 38.510592 48.65536 38.510592zM281.771008 288.666624c-24.255488 0-48.775168 15.072256-48.775168 38.370304 0 23.04512 24.51968 38.511616 48.775168 38.511616 24.165376 0 40.3456-15.466496 40.3456-38.511616-0.029696-23.298048-16.180224-38.370304-40.3456-38.370304z" p-id="3999" fill="#ffffff"></path><path d="M854.944768 778.252288c-4.921344 3.535872-7.0144 9.628672-5.245952 15.241216l13.939712 44.153856-57.202688-29.809664a15.19616 15.19616 0 0 0-7.073792-1.7408c-1.20832 0-2.41664 0.140288-3.595264 0.449536-30.67904 7.382016-62.418944 14.989312-93.333504 14.989312-143.581184 0-260.373504-93.976576-260.373504-209.481728 0-115.506176 116.79232-209.45408 260.373504-209.45408 140.839936 0 259.842048 95.91296 259.842048 209.45408 0.001024 57.597952-38.104064 116.627456-107.33056 166.198272z m-439.171072-111.91296a355.390464 355.390464 0 0 1-28.939264 1.178624c-32.535552 0-60.061696-5.361664-91.889664-11.620352l-18.507776-3.564544a14.872576 14.872576 0 0 0-9.459712 1.207296l-81.309696 38.76352 21.131264-60.461056c2.06336-5.922816-0.205824-12.378112-5.540864-15.94368C119.564288 561.66912 78.158848 495.593472 78.158848 419.55328c0-136.697856 138.452992-247.936 308.645888-247.936 150.447104 0 283.654144 87.18336 311.150592 203.138048-157.756416 1.964032-285.39392 107.589632-285.39392 237.325312 0 18.863104 3.006464 37.136384 8.075264 54.764544-1.532928-0.365568-3.15392-0.64512-4.862976-0.505856z m575.976448-54.258688c0-121.821184-118.65088-225.622016-264.295424-236.428288 0.205824-1.51552 0.294912-3.08736-0.058368-4.6592-29.206528-129.681408-175.614976-227.446784-340.591616-227.446784-186.431488 0-338.116608 123.814912-338.116608 276.005888 0 81.654784 43.763712 155.224064 126.6944 213.243904l-28.910592 82.776064c-1.856512 5.389312-0.177152 11.312128 4.332544 15.045632 2.740224 2.245632 6.189056 3.424256 9.665536 3.424256 2.239488 0 4.509696-0.505856 6.601728-1.487872l108.539904-51.731456 13.379584 2.582528c33.420288 6.539264 62.271488 12.210176 97.813504 12.210176 10.461184 0 21.070848-0.449536 31.473664-1.291264 4.21376-0.336896 7.780352-2.358272 10.196992-5.276672 39.13728 93.274112 146.999296 160.612352 273.929216 160.612352 32.505856 0 65.424384-7.465984 94.954496-14.512128l83.666944 43.564032a15.371264 15.371264 0 0 0 7.072768 1.7408c3.301376 0 6.600704-1.067008 9.253888-3.116032 4.656128-3.593216 6.572032-9.515008 4.83328-14.932992l-21.36576-67.675136c71.643136-53.920768 110.92992-118.424576 110.92992-182.647808z" p-id="4000" fill="#ffffff"></path><path d="M580.868096 542.862336c0 15.494144 16.180224 30.79168 32.3584 30.79168 24.313856 0 40.375296-15.297536 40.375296-30.79168 0-15.410176-16.06144-30.90432-40.375296-30.90432-16.178176 0-32.3584 15.521792-32.3584 30.90432zM758.87104 542.862336c0 15.494144 16.180224 30.79168 32.123904 30.79168 24.224768 0 40.580096-15.297536 40.580096-30.79168 0-15.410176-16.326656-30.90432-40.580096-30.90432-15.944704 0-32.123904 15.521792-32.123904 30.90432z" p-id="4001" fill="#ffffff"></path></svg>