<?xml version="1.0" standalone="no"?><!DOCTYPE svg PUBLIC "-//W3C//DTD SVG 1.1//EN" "http://www.w3.org/Graphics/SVG/1.1/DTD/svg11.dtd"><svg t="1506756839154" class="icon" style="" viewBox="0 0 1024 1024" version="1.1" xmlns="http://www.w3.org/2000/svg" p-id="5760" xmlns:xlink="http://www.w3.org/1999/xlink" width="200" height="200"><defs><style type="text/css"></style></defs><path d="M512 1024a512 512 0 1 1 512-512 512 512 0 0 1-512 512z m-88.746667-673.109333c-11.195733-2.048-22.869333-1.024-34.133333-2.048-4.437333-29.013333 1.160533-58.368-4.3008-87.722667a33.5872 33.5872 0 0 0-18.602667-22.528c-8.567467 2.730667-16.622933 6.485333-24.541866 9.898667a279.893333 279.893333 0 0 0 0 91.477333c-23.04 18.432-54.340267 4.437333-80.520534 12.288-19.421867 7.850667-13.653333 29.354667-13.653333 44.714667a217.463467 217.463467 0 0 0 82.3296-11.264 110.762667 110.762667 0 0 1 17.783467 80.554666 196.3008 196.3008 0 0 1-21.4016 35.498667 71.4752 71.4752 0 0 0-34.747734 8.533333 99.498667 99.498667 0 0 0-43.3152 13.312 49.629867 49.629867 0 0 0-6.826666 27.989334 39.662933 39.662933 0 0 0 30.139733 17.408c19.592533-5.12 33.28-20.48 52.053333-27.306667a51.2 51.2 0 0 1 23.722667 9.216c-2.491733 44.714667 7.543467 91.818667-10.24 134.826667-6.417067 0-13.0048 0-19.421867-0.341334-6.2464-9.898667-12.834133-19.797333-19.421866-29.696-8.0896 0.341333-15.9744 0.341333-23.893334 0.341334a68.437333 68.437333 0 0 0 22.562134 74.410666c5.597867 2.389333 11.3664 4.437333 17.066666 6.826667 24.541867-3.413333 55.671467-7.509333 64.068267-33.450667 17.476267-60.416 6.109867-123.562667 4.608-185.344 10.717867-7.168 21.572267-13.994667 32.290133-21.162666 0-9.557333-0.341333-19.456-0.512-29.354667-12.014933 0-24.200533 0.341333-36.386133 0.682667a69.7344 69.7344 0 0 1 6.417067-66.218667 312.5248 312.5248 0 0 0 50.722133-15.701333 22.493867 22.493867 0 0 0-11.844267-35.84z m94.856534-100.010667a95.9488 95.9488 0 0 0-65.365334 55.978667c5.4272 4.778667 10.8544 9.898667 16.452267 14.677333a103.185067 103.185067 0 0 0 65.7408-36.522667 31.232 31.232 0 0 0-16.827733-34.133333z m256 435.541333c-13.0048-2.389333-26.0096-5.12-39.0144-7.850666-2.1504-2.048-6.587733-6.485333-8.738134-8.533334h-26.624c-11.844267-8.192-24.200533-15.701333-36.727466-23.210666h-20.718934a102.058667 102.058667 0 0 1-3.413333-22.186667 265.250133 265.250133 0 0 0 29.969067-33.109333 123.835733 123.835733 0 0 0-2.9696-67.925334 157.559467 157.559467 0 0 0-73.591467-33.109333 49.5616 49.5616 0 0 1 22.2208-25.6 440.32 440.32 0 0 0 70.314667 4.778667 93.5936 93.5936 0 0 0 43.144533-39.594667c3.140267-21.162667 0-42.666667 3.413333-63.829333a108.578133 108.578133 0 0 0-11.195733-76.458667 102.912 102.912 0 0 0-89.088-31.402667c-1.501867 2.730667-4.642133 7.850667-6.109867 10.24 0 4.437333-0.512 12.629333-0.648533 17.066667a178.0736 178.0736 0 0 0 66.8672 19.456v38.912a284.945067 284.945067 0 0 0-67.822933 11.264c0.3072 6.485333 0.477867 12.970667 0.8192 19.456a564.462933 564.462933 0 0 0 62.907733 13.312c0 9.898667-0.512 19.797333-0.8192 29.354667a170.359467 170.359467 0 0 1-71.68 9.557333 50.414933 50.414933 0 0 1-17.6128-32.085333c0.3072-35.157333 1.979733-70.656 4.437333-105.813334A253.678933 253.678933 0 0 0 598.459733 204.8a229.205333 229.205333 0 0 0-37.376 3.413333c-11.3664 66.901333 11.537067 134.144 3.140267 200.704-11.3664 22.869333-45.124267 25.258667-69.358933 25.941334-1.297067-11.946667-2.286933-24.234667-2.798934-36.522667a253.883733 253.883733 0 0 0 59.2896-17.749333c0-6.826667-0.3072-13.994667-0.648533-21.162667-18.602667-1.365333-37.0688-2.389333-55.671467-2.389333a239.684267 239.684267 0 0 0-19.933866-36.181334 94.139733 94.139733 0 0 0-17.92 9.216 132.334933 132.334933 0 0 0-4.778667 49.493334c0.648533 20.821333-1.3312 41.984 1.1264 62.464a50.961067 50.961067 0 0 0 24.3712 26.965333c28.330667 0.682667 56.661333-1.706667 84.821333-0.341333 4.778667 6.826667 9.386667 13.994667 13.994667 20.821333a148.002133 148.002133 0 0 0-23.893333 14.336 34.7136 34.7136 0 0 0-2.321067 32.085333 536.576 536.576 0 0 0 57.309867-5.12 100.898133 100.898133 0 0 1 16.657066 19.114667 59.323733 59.323733 0 0 1 0 33.450667c-10.069333 10.581333-19.933867 20.821333-29.832533 31.061333-27.477333-17.066667-48.2304-41.301333-74.274133-59.733333a77.073067 77.073067 0 0 0-34.747734-19.456 36.317867 36.317867 0 0 0-26.180266 17.408c14.813867 14.336 35.396267 21.504 51.2 34.474666a233.5744 233.5744 0 0 1 34.9184 62.464 49.834667 49.834667 0 0 1-22.4256 18.090667 257.365333 257.365333 0 0 1-97.962667 18.432 44.714667 44.714667 0 0 0 17.066667 50.517333c41.1648 8.874667 70.144-23.893333 105.540266-36.181333 14.848-4.778667 23.2448-19.797333 38.058667-24.576 25.668267-5.461333 41.984 18.090667 63.249067 26.624 30.958933 12.288 53.828267 38.570667 87.4496 45.056a40.686933 40.686933 0 0 0 36.693333-7.168 58.709333 58.709333 0 0 0 0.989867-53.930667zM291.089067 510.293333a156.501333 156.501333 0 0 1-43.3152 13.312 156.501333 156.501333 0 0 0 43.4176-13.312z" p-id="5761" fill="#ffffff"></path></svg>