<?xml version="1.0" standalone="no"?><!DOCTYPE svg PUBLIC "-//W3C//DTD SVG 1.1//EN" "http://www.w3.org/Graphics/SVG/1.1/DTD/svg11.dtd"><svg t="1506756899810" class="icon" style="" viewBox="0 0 1026 1024" version="1.1" xmlns="http://www.w3.org/2000/svg" p-id="6767" xmlns:xlink="http://www.w3.org/1999/xlink" width="200.390625" height="200"><defs><style type="text/css"></style></defs><path d="M1026.76992 172.847104V807.94624c-11.078656 0.515072-22.15936 0.971776-33.23392 1.559552-18.778112 0.996352-37.5552 2.043904-56.32512 3.129344-17.217536 0.995328-34.428928 2.130944-51.648512 3.089408-29.07136 1.616896-58.146816 3.111936-87.218176 4.714496-17.738752 0.978944-35.470336 2.081792-53.20704 3.0976-27.512832 1.577984-55.02464 3.130368-82.53952 4.694016-18.255872 1.037312-36.51072 2.065408-54.766592 3.113984-26.993664 1.555456-53.986304 3.121152-80.979968 4.68992-17.73568 1.030144-35.469312 2.112512-53.20704 3.101696-28.551168 1.595392-57.107456 3.111936-85.658624 4.706304-17.737728 0.992256-35.470336 2.106368-53.20704 3.095552-28.552192 1.596416-57.107456 3.111936-85.658624 4.70528-17.738752 0.99328-35.470336 2.105344-53.208064 3.0976-28.552192 1.595392-57.10848 3.111936-85.658624 4.70528-17.738752 0.992256-35.470336 2.09408-53.208064 3.098624-19.011584 1.0752-38.028288 2.09408-57.04192 3.136512C0 652.94336 0 440.20224 0 227.462144c6.397952-0.51712 12.786688-1.180672 19.193856-1.522688 30.374912-1.620992 60.756992-3.135488 91.132928-4.72576 19.04128-0.9984 38.078464-2.077696 57.117696-3.099648 29.3376-1.573888 58.6752-3.14368 88.014848-4.691968 20.077568-1.058816 40.158208-2.059264 60.235776-3.116032 29.338624-1.549312 58.677248-3.108864 88.014848-4.697088 18.520064-1.002496 37.036032-2.102272 55.558144-3.091456 20.335616-1.088512 40.676352-2.100224 61.012992-3.140608 20.339712-1.043456 40.681472-2.049024 61.019136-3.1232 29.078528-1.536 58.155008-3.117056 87.233536-4.681728 19.299328-1.038336 38.595584-2.091008 57.89696-3.109888 20.077568-1.060864 40.15616-2.100224 60.235776-3.126272 20.598784-1.05472 41.197568-2.072576 61.796352-3.126272 20.079616-1.027072 40.158208-2.064384 60.235776-3.1232 19.299328-1.019904 38.596608-2.084864 57.897984-3.105792 20.057088-1.05984 40.1152-2.089984 60.173312-3.13344z m-234.924032 268.15488c9.121792-4.347904 16.960512-8.009728 24.737792-11.803648 28.208128-13.763584 56.29952-27.773952 84.652032-41.237504 8.45824-4.015104 12.841984-8.7296 11.89888-18.976768-1.16224-12.632064-0.277504-25.452544-0.277504-38.192128v-35.243008c-6.506496 0.786432-12.008448 1.748992-17.548288 2.069504-28.806144 1.672192-57.627648 3.141632-86.436864 4.759552-16.961536 0.953344-33.905664 2.228224-50.87232 3.05152-24.748032 1.2032-49.508352 2.1248-74.261504 3.185664-2.577408 0.111616-5.153792 0.590848-7.712768 0.489472-4.168704-0.167936-8.797184 0.388096-12.404736-1.215488-18.596864-8.27392-36.928512-17.137664-56.096768-26.141696-1.043456 1.312768-2.313216 2.630656-3.26656 4.150272-23.379968 37.284864-46.583808 74.681344-70.248448 111.787008-3.253248 5.101568-0.976896 6.209536 2.760704 7.56224 16.462848 5.9648 33.225728 11.209728 49.338368 18.002944 8.435712 3.556352 11.27936 0.331776 15.154176-6.21568 10.22976-17.29536 21.189632-34.163712 32.055296-51.07712 1.186816-1.847296 3.529728-3.889152 5.531648-4.11136 8.429568-0.939008 16.935936-1.23392 25.413632-1.741824 17.473536-1.045504 34.942976-2.220032 52.427776-3.074048 24.228864-1.185792 48.470016-2.106368 72.704-3.197952 2.802688-0.124928 5.583872-0.756736 8.38656-0.919552 12.747776-0.73728 25.496576-1.389568 37.761024-2.046976 3.081216 8.204288-0.997376 11.15136-7.017472 14.060544-33.289216 16.08192-66.359296 32.60928-99.636224 48.713728-2.783232 1.344512-6.9376 1.814528-9.762816 0.786432-21.706752-7.906304-43.22816-16.320512-64.835584-24.502272-17.047552-6.457344-17.062912-6.406144-27.185152 8.597504-1.284096 1.903616-2.685952 3.730432-3.934208 5.654528-5.623808 8.655872-11.213824 17.334272-17.024 26.331136 17.34656 6.421504 33.69984 12.47232 50.696192 18.763776-28.407808 14.157824-55.865344 27.964416-83.477504 41.438208-3.283968 1.60256-7.425024 1.709056-11.206656 1.967104-8.853504 0.608256-17.727488 0.888832-26.550272 1.30048v48.270336c15.529984 0 30.666752 0.162816 45.79328-0.124928 3.423232-0.065536 7.07072-1.174528 10.17856-2.696192 37.526528-18.372608 75.053056-36.742144 112.388096-55.499776 13.266944-6.665216 25.12896-9.393152 40.331264-2.725888 28.53376 12.517376 58.24512 22.44096 87.7568 32.605184 14.769152 5.085184 28.755968 13.802496 45.469696 11.74528 6.365184-0.782336 12.79488-1.046528 19.185664-1.611776 6.816768-0.603136 13.626368-1.28512 20.214784-1.90976v-50.25792c-6.549504 0.766976-12.381184 1.907712-18.233344 2.016256-6.893568 0.125952-14.135296 0.546816-20.632576-1.275904-12.19584-3.422208-23.993344-8.2944-35.907584-12.694528-16.364544-6.048768-32.683008-12.218368-50.307072-18.814976zM324.294656 329.332736v213.87264c-19.902464 1.419264-38.893568 2.95424-57.909248 4.091904-28.813312 1.723392-57.637888 3.26144-86.46656 4.697088-14.710784 0.735232-29.449216 0.9216-44.161024 1.659904-9.181184 0.4608-18.335744 1.496064-27.598848 2.2784v50.11968l148.796416-8.297472c-18.551808 24.619008-36.92032 48.459776-54.64064 72.773632-7.282688 9.993216-15.033344 15.821824-28.476416 14.50496-12.213248-1.196032-24.735744 0.531456-37.10464 1.253376-8.936448 0.52224-17.846272 1.508352-27.48928 2.351104 0 15.20128-0.161792 30.47936 0.23552 45.743104 0.043008 1.615872 3.45088 4.59776 5.15584 4.499456 29.500416-1.717248 58.971136-3.945472 88.466432-5.78048 13.661184-0.84992 27.365376-0.989184 41.033728-1.750016 1.890304-0.106496 4.237312-1.52064 5.43232-3.057664 8.927232-11.483136 17.579008-23.181312 26.387456-34.756608 21.638144-28.437504 43.180032-56.948736 65.065984-85.193728 5.82656-7.519232 10.196992-16.904192 22.232064-17.395712 28.838912-1.178624 57.647104-3.052544 86.472704-4.564992 12.114944-0.63488 24.256512-0.862208 36.345856-1.794048 1.926144-0.149504 5.161984-3.00544 5.213184-4.685824 0.417792-14.029824 0.349184-28.081152 0.04608-42.11712-0.03072-1.36704-2.66752-3.884032-4.020224-3.831808-16.19968 0.603136-32.38912 1.516544-48.57344 2.500608-12.795904 0.77824-25.578496 1.7664-39.399424 2.732032v-213.93408l-75.04384 4.081664z m211.120128 277.316608c2.619392 0 4.636672 0.110592 6.64064-0.018432 15.391744-1.001472 30.774272-2.249728 46.178304-3.026944 15.480832-0.782336 30.98624-1.08032 46.477312-1.664 2.808832-0.105472 5.59616-0.679936 8.402944-0.833536 14.811136-0.82944 29.62432-1.59232 45.309952-2.423808v106.995712l76.341248-4.16768V594.90304c6.933504-0.832512 13.000704-1.835008 19.11296-2.243584 17.719296-1.18272 35.451904-2.276352 53.190656-3.126272 24.743936-1.188864 49.498112-2.117632 74.246144-3.183616 1.974272-0.083968 3.939328-0.367616 5.850112-0.551936v-51.111936c-13.891584 1.12128-27.357184 2.51904-40.8576 3.226624-24.474624 1.28512-48.974848 2.134016-73.462784 3.23072-2.536448 0.114688-5.045248 0.835584-7.583744 0.99328-10.088448 0.621568-20.18304 1.130496-30.864384 1.713152v-24.631296c-25.629696 1.549312-50.633728 3.062784-76.424192 4.624384v24.111104c-20.112384 1.399808-39.340032 2.9952-58.599424 4.012032-24.733696 1.307648-49.498112 2.052096-74.24 3.257344-6.555648 0.319488-13.075456 1.44384-19.718144 2.212864v49.21344z m-175.872-4.681728c-0.27136 0.989184-0.543744 1.98144-0.817152 2.970624l59.071488 115.899392 82.906112-4.508672c-0.176128-1.95584-0.077824-2.52416-0.284672-2.931712-17.303552-34.074624-34.78016-68.063232-51.849216-102.25152-4.079616-8.172544-9.10336-12.289024-18.76992-10.914816-9.393152 1.33632-18.988032 1.497088-28.504064 1.673216-13.913088 0.253952-27.834368 0.063488-41.752576 0.063488z m175.111168 112.351232c4.185088 0 7.036928 0.124928 9.87648-0.019456 19.54816-1.002496 39.08096-2.345984 58.640384-2.920448 5.505024-0.15872 7.911424-1.977344 10.33728-6.790144 11.693056-23.226368 23.957504-46.162944 35.955712-69.235712 3.71712-7.148544 7.236608-14.404608 11.50464-22.925312-7.914496 0.777216-14.244864 1.673216-20.605952 1.968128-14.96064 0.692224-29.940736 0.987136-44.903424 1.670144-7.005184 0.320512-12.665856 2.10432-15.584256 10.121216-3.026944 8.308736-8.153088 15.84128-12.237824 23.776256-10.822656 21.030912-21.578752 42.094592-32.98304 64.355328z m396.867584-22.674432c-0.20992-1.246208-0.078848-2.663424-0.667648-3.646464-16.4864-27.472896-33.04448-54.905856-49.593344-82.341888-2.226176-3.690496-4.924416-5.730304-9.82016-5.371904-18.485248 1.347584-37.011456 2.15552-55.513088 3.278848-4.373504 0.265216-8.71936 0.968704-13.860864 1.560576 17.552384 29.14304 34.412544 57.286656 51.520512 85.280768 1.379328 2.255872 4.4544 4.958208 6.724608 4.944896 16.274432-0.099328 32.550912-0.6912 48.813056-1.458176 7.36256-0.346112 14.690304-1.44896 22.396928-2.246656z m-649.2672-171.55584c-0.183296-1.01376-0.110592-1.632256-0.382976-1.977344-15.824896-20.07552-32.053248-39.846912-47.366144-60.30336-7.3984-9.8816-15.331328-15.256576-28.332032-13.65504-16.064512 1.98144-32.338944 2.244608-48.514048 3.359744-5.691392 0.391168-11.362304 1.11104-17.11616 1.687552 0.267264 1.605632 0.183296 2.231296 0.454656 2.57536 16.19968 20.435968 32.673792 40.662016 48.535552 61.35808 6.690816 8.7296 13.553664 13.940736 25.621504 12.657664 19.710976-2.097152 39.619584-2.304 59.43296-3.503104 2.618368-0.156672 5.170176-1.455104 7.666688-2.199552z m0.894976-93.534208c-2.532352-3.5584-4.315136-6.294528-6.327296-8.853504-13.246464-16.842752-26.810368-33.444864-39.723008-50.537472-8.240128-10.907648-15.937536-20.08064-32.282624-16.817152-12.488704 2.49344-25.695232 1.278976-38.565888 2.016256-8.539136 0.490496-17.048576 1.517568-26.708992 2.409472 19.966976 25.464832 39.227392 50.153472 58.740736 74.637312 1.28 1.606656 4.539392 2.430976 6.815744 2.31936 16.407552-0.801792 32.801792-1.896448 49.195008-2.985984 9.187328-0.60928 18.364416-1.38752 28.85632-2.188288z" fill="#ffffff" p-id="6768"></path></svg>