<?xml version="1.0" standalone="no"?><!DOCTYPE svg PUBLIC "-//W3C//DTD SVG 1.1//EN" "http://www.w3.org/Graphics/SVG/1.1/DTD/svg11.dtd"><svg t="1506756714665" class="icon" style="" viewBox="0 0 1027 1024" version="1.1" xmlns="http://www.w3.org/2000/svg" p-id="3262" xmlns:xlink="http://www.w3.org/1999/xlink" width="200.5859375" height="200"><defs><style type="text/css"></style></defs><path d="M513.259239 992.120544c263.674979 0 478.175897-214.532798 478.175897-478.207777C991.451076 250.237788 776.950157 35.704991 513.259239 35.704991S35.083341 250.237788 35.083341 513.912767 249.58426 992.120544 513.259239 992.120544m0 31.863516c-281.718751 0-510.071293-228.352542-510.071293-510.071293s228.352542-510.071293 510.071293-510.071293 510.071293 228.352542 510.071292 510.071293-228.352542 510.071293-510.071292 510.071293z" fill="#ffffff" p-id="3263"></path><path d="M212.396874 526.568911c24.706578-20.020298 57.829333-26.683105 88.959622-26.188973 21.996825-0.749167 43.993649 3.713957 64.98627 10.870895-3.953053 14.090719-7.411973 28.420535-12.353289 42.256218-11.12593-2.964789-20.259394-10.376763-31.130288-13.596587-18.043772-5.690483-38.303166-6.917842-56.346938-0.988264-6.184614 1.73743-10.137667 6.917842-13.596588 12.114194 1.243299 1.976526 2.231562 3.953053 3.219825 5.929578 23.479219 9.882631 50.417359 6.917842 73.147411 18.537904 13.102456 6.184614 20.753526 22.490956 15.573114 36.32664-5.929579 26.683105-31.130289 43.244482-55.597771 50.911491-41.522991 12.608325-87.238131 11.12593-127.517823-4.70222 4.208088-14.329815 8.655272-28.659631 12.847421-43.244482 8.894368 0 15.318079 7.667009 23.224183 10.870895a115.40363 115.40363 0 0 0 69.449395 7.906105c6.184614-1.243299 11.12593-5.196351 15.573114-9.149404 0-2.725693 0.255036-5.196351 0.255036-7.906105-16.561377-9.882631-36.581676-8.161141-54.609508-13.102456-15.078983-3.219825-31.62442-11.365026-36.087544-27.432272-4.70222-19.016095 5.674543-37.809035 20.004358-49.413157z m278.25983-5.929578c29.153762-12.114193 61.033218-16.561377 92.418543-19.526167 22.23592-0.494132 46.464307-2.470658 66.723701 8.655272 15.573114 9.3885 15.573114 30.397061 11.12593 45.970175-10.870894 38.303166-23.973351 75.618069-34.844245 113.921236-10.870894 1.976526-21.996825 0.749167-33.106815 0.988263-8.894368-0.255036-18.043772 1.243299-26.444009-2.231562 9.643535-26.93814 17.54964-54.609508 25.949877-82.04178 2.964789-10.631799 6.678746-21.502693 6.423711-32.867719-6.42371-13.596588-23.718315-11.859158-35.832509-9.882631-8.400237 2.470658-18.776999 3.713957-24.706578 10.376763-11.859158 38.303166-24.212447 76.606332-35.338377 115.164534-19.526167 0.494132-39.052333 0.255036-58.56256 0 2.470658-13.341552 7.667009-25.694841 11.365026-38.558202 8.655272-29.90293 18.282868-59.550823 27.432272-89.453753 2.215622-6.933782 3.203885-14.584851 7.396033-20.514429z m222.407024-12.369229a347.310731 347.310731 0 0 1 102.317113-6.917842c15.573114 2.725693 33.616886 4.447184 44.487781 17.54964 7.667009 8.400237 6.917842 20.753526 5.435447 31.385324-6.678746 23.718315-14.329815 47.197534-21.502693 70.676754-1.482395 6.917842-7.667009 10.870894-12.847421 15.078983-27.177236 20.259394-60.794122 30.891193-94.650104 33.600946a110.653591 110.653591 0 0 1-52.393886-5.196351c-12.608325-4.447184-21.741789-16.067246-22.490956-29.408798 0.255036-25.694841 17.788736-48.440833 40.773824-58.323465 26.683105-11.859158 56.586034-14.823947 85.755736-15.078982-2.231562 10.137667-5.690483 20.020298-8.400236 29.902929-17.294605 2.725693-38.06407 1.976526-50.656455 16.067246-4.208088 5.929579-8.400237 14.329815-3.458921 21.247657 6.917842 6.42371 17.055509 5.690483 25.949877 5.690483 12.353289 0 24.212447-5.196351 34.844245-11.12593 5.435447-22.985088 14.329815-44.981912 20.020298-67.967 2.470658-8.161141-5.690483-14.823947-12.847421-16.561377a121.141932 121.141932 0 0 0-47.197534-1.976526c-15.318079 0.494132-29.408798 6.678746-44.232745 8.894368 3.442981-12.32141 7.396034-24.674699 11.094051-37.538059z m-325.69646 13.851623c7.667009 0 15.318079 0.494132 22.730052 1.976526 14.823947 2.725693 29.647894 1.243299 44.48778 0.494132-20.259394 63.758912-42.511254 127.023692-68.700227 188.551041-7.172878 15.078983-13.835684 30.891193-24.212447 44.232745-2.725693 3.713957-9.3885 8.655272-11.620062 1.482395-1.976526-17.54964-0.494132-35.099281 1.976527-52.632981a1914.887332 1914.887332 0 0 1 26.683104-143.824165c2.964789-13.341552 6.917842-26.444009 8.655273-40.279693z m241.678154-223.15619c-1.482395-5.929579-9.643535-3.458921-14.090719-3.713957-21.741789 3.458921-37.314903 21.247657-56.586035 30.142025-2.964789-1.73743-5.929579-3.713957-8.655272-5.435447 1.243299-7.411973 2.964789-14.584851 6.678746-21.008561 4.70222-9.643535 13.596588-18.043772 11.12593-29.647894-3.458921-5.929579-10.870894-3.713957-16.067245-2.470658-22.490956 9.149404-35.832508 30.636157-53.876281 45.476044-4.70222 1.482395-13.102456 3.713957-14.584851-2.96479-2.470658-14.823947 6.678746-27.926403 9.643536-42.017122 0.255036-3.713957 0.988263-8.161141-2.231562-10.870895-7.667009-4.447184-16.561377-0.494132-23.47922 3.458921-13.835684 10.137667-24.961614 23.224184-33.855982 37.809035-5.435447 9.882631-12.353289 22.730052-25.694841 21.741789-2.231562-11.365026-0.494132-22.985088-2.231562-34.350114-5.196351 0.494132-11.365026 0-15.573114 3.953053-13.835684 11.12593-17.055509 29.90293-23.973351 45.221008-1.976526 4.941316-8.161141 12.114193-12.608325 5.196351-2.470658-8.655272-0.749167-18.282868-2.964789-27.177236-3.953053 1.243299-8.655272 1.243299-11.365026 4.447184-8.894368 10.137667-13.596588 22.985088-18.282868 35.338377-4.941316 13.596588-12.608325 26.188973-16.306342 40.534728-4.208088 13.596588-4.70222 28.165499-3.219825 42.511254 0.255036 0.988263 0.494132 2.231562 0.494132 3.219825 0 0 2.964789 41.267956 67.472868 58.817596 12.608325 3.953053 25.949877 6.678746 38.797298 8.400237 19.526167 1.243299 39.291429 1.243299 58.817596 0 30.891193-4.941316 62.276517-11.859158 89.947884-26.938141 23.973351-12.353289 46.958438-31.130289 55.852807-57.574297 7.906105-21.996825 2.725693-46.209271-6.184614-66.962797-5.913639-23.256063 27.209116-32.899598 23.001027-55.135518z m-84.767473 147.043989c-22.490956 25.949877-56.346938 39.291429-89.947885 42.511255-20.259394 0.255036-41.267956 2.231562-60.794122-4.447184-18.282868-5.690483-37.569939-14.329815-47.946701-31.130289-10.870894-16.067246-7.906105-38.797298 4.208088-53.382149 19.765263-24.467482 50.417359-37.809035 80.81442-42.75035 28.420535-4.70222 58.323464-2.725693 85.500701 7.667009 16.067246 6.678746 30.891193 18.537904 37.809034 35.099281 3.219825 15.780331 1.73743 33.824103-9.643535 46.432427z" fill="#ffffff" p-id="3264"></path><path d="M484.982161 415.35743a39.052333 39.052333 0 0 0-29.153762-32.612684c-9.882631-1.976526-20.259394-2.231562-29.90293 0.255036-25.20071 7.172878-45.71514 32.118552-42.017122 58.817596 1.73743 20.020298 21.008561 35.099281 40.534728 34.350114 32.612683 2.709754 65.225367-27.942343 60.539086-60.810062z m-50.911491 33.36185c-5.690483 8.894368-16.800473 11.859158-24.706578 6.678746-7.906105-5.196351-9.882631-16.306342-4.208088-25.20071 5.690483-8.894368 16.800473-11.859158 24.706578-6.678746 7.906105 4.941316 9.882631 16.306342 4.208088 25.20071z m6.168675-21.996824c-2.231562 0-4.208088-1.976526-4.208088-4.208088s1.976526-4.208088 4.208088-4.208089 4.208088 1.976526 4.208088 4.208089-1.73743 4.208088-4.208088 4.208088z" fill="#ffffff" p-id="3265"></path></svg>